<?xml version="1.0" standalone="no"?>
<!DOCTYPE svg PUBLIC "-//W3C//DTD SVG 20010904//EN"
 "http://www.w3.org/TR/2001/REC-SVG-20010904/DTD/svg10.dtd">
<svg version="1.0" xmlns="http://www.w3.org/2000/svg"
 width="542.000000pt" height="642.000000pt" viewBox="0 0 542.000000 642.000000"
 preserveAspectRatio="xMidYMid meet">

<g transform="translate(0.000000,642.000000) scale(0.100000,-0.100000)"
fill="#000000" stroke="none">
<path d="M252 6243 l3 -78 120 -6 c98 -4 128 -9 163 -28 69 -36 127 -95 158
-164 l29 -62 0 -2645 0 -2645 -26 -55 c-67 -144 -183 -209 -371 -210 l-78 0 0
-75 0 -75 1818 0 c1949 0 1897 -1 2082 50 278 77 495 204 701 409 222 223 355
463 425 766 38 170 45 417 16 590 -49 284 -176 555 -365 776 -248 290 -634
490 -1015 525 l-72 7 102 49 c260 125 465 302 624 538 344 516 346 1207 5
1717 -230 344 -562 569 -983 666 -93 21 -98 21 -1716 24 l-1623 4 3 -78z
m3368 -442 c70 -49 83 -174 36 -332 -37 -126 -117 -306 -186 -421 -102 -169
-112 -215 -60 -274 70 -80 60 -166 -33 -276 -66 -78 -64 -97 43 -488 83 -303
-9 -482 -375 -722 -255 -168 -531 -324 -637 -361 -10 -4 -18 -13 -18 -20 0
-17 81 -27 224 -27 116 0 243 -14 331 -36 131 -33 196 -83 257 -199 80 -154
96 -250 73 -440 -22 -178 -22 -177 15 -235 62 -96 52 -185 -35 -325 -25 -40
-45 -81 -45 -92 0 -11 12 -30 26 -44 77 -72 69 -114 -44 -231 -82 -85 -86 -91
-90 -141 -6 -78 34 -132 163 -219 123 -82 155 -118 155 -171 0 -110 -136 -165
-265 -108 -67 30 -80 43 -106 113 -27 73 -105 162 -176 201 -92 49 -149 58
-338 51 -160 -6 -173 -5 -225 15 -30 12 -100 38 -155 57 -131 47 -253 111
-400 213 -164 114 -221 164 -253 225 l-27 51 -3 1435 c-3 1581 -6 1503 58
1600 49 74 226 264 350 375 298 269 619 482 933 620 207 91 539 202 687 228
39 7 93 -2 120 -22z"/>
</g>
</svg>
